<svg xmlns="http://www.w3.org/2000/svg" xmlns:xlink="http://www.w3.org/1999/xlink" viewBox="0 0 423.32 368.71"><defs><style>.cls-1{isolation:isolate;}.cls-2,.cls-3,.cls-4{mix-blend-mode:luminosity;}.cls-2{fill:url(#Безымянный_градиент_2);}.cls-3{fill:url(#Безымянный_градиент_2-2);}.cls-4{fill:url(#Безымянный_градиент_2-3);}.cls-5{fill:#7959bf;}.cls-6{fill:#e2d8f8;}.cls-7{mix-blend-mode:multiply;fill:url(#Безымянный_градиент_3);}.cls-20,.cls-29,.cls-8{fill:none;stroke-linecap:round;}.cls-8{stroke:#493572;stroke-width:2.08px;}.cls-20,.cls-8{stroke-linejoin:round;}.cls-9{font-size:20.89px;fill:#493572;font-family:Linotte-SemiBold, Linotte SemiBold;font-weight:600;}.cls-10{letter-spacing:-0.02em;}.cls-11{letter-spacing:-0.08em;}.cls-12{letter-spacing:-0.01em;}.cls-13{letter-spacing:0.03em;}.cls-14{letter-spacing:0em;}.cls-15{letter-spacing:0em;}.cls-16{fill:#9e84d8;}.cls-17{fill:#bbabf2;}.cls-18{fill:#f2a71d;}.cls-19{fill:#fff;}.cls-20{stroke:#f2a71d;stroke-width:2.6px;}.cls-21{fill:#1c123f;}.cls-22{fill:#dfb180;}.cls-23{fill:#e6c49e;}.cls-24{fill:#523972;}.cls-25{fill:#d86f13;}.cls-26{fill:#5e45a5;}.cls-27{fill:#412f84;}.cls-28{fill:#6456bf;}.cls-29{stroke:#1c123f;stroke-miterlimit:10;stroke-width:1.74px;}.cls-30{fill:#9e90f2;}.cls-31{fill:#b24e04;}.cls-32{fill:#f5f5f5;}</style><linearGradient id="Безымянный_градиент_2" x1="286.07" y1="360.18" x2="423.32" y2="360.18" gradientUnits="userSpaceOnUse"><stop offset="0" stop-color="#aab5e0"/><stop offset="1" stop-color="#b8b9e1" stop-opacity="0"/></linearGradient><linearGradient id="Безымянный_градиент_2-2" x1="107.81" y1="337.12" x2="359.71" y2="337.12" xlink:href="#Безымянный_градиент_2"/><linearGradient id="Безымянный_градиент_2-3" x1="61.9" y1="362.25" x2="199.15" y2="362.25" xlink:href="#Безымянный_градиент_2"/><linearGradient id="Безымянный_градиент_3" x1="211.82" y1="281.32" x2="211.82" y2="114.4" gradientUnits="userSpaceOnUse"><stop offset="0" stop-color="#bfe8f2"/><stop offset="1" stop-color="#d9cbf1" stop-opacity="0"/></linearGradient></defs><title>Recurso 1</title><g class="cls-1"><g id="Capa_2" data-name="Capa 2"><g id="OBJECTS"><path class="cls-2" d="M289.55,357.31c15.68-.57,59.78-5.7,79.65-2.6s59.91,9.59,53.41,10.67-103,2.16-119.39,0S282,357.59,289.55,357.31Z"/><path class="cls-3" d="M114.19,334.26c28.77-.58,109.71-5.71,146.19-2.61s110,9.59,98,10.67-189.09,2.17-219.14,0S100.32,334.53,114.19,334.26Z"/><path class="cls-4" d="M65.38,359.39c15.68-.58,59.78-5.7,79.65-2.6s59.91,9.59,53.41,10.67-103,2.16-119.39,0S57.82,359.67,65.38,359.39Z"/><rect class="cls-5" x="106.26" y="192.86" width="211.13" height="144.29"/><path class="cls-5" d="M317.39,193.28H106.26v-8.55a11.32,11.32,0,0,1,4.47-9L211.82,98.9l101.09,76.8a11.33,11.33,0,0,1,4.48,9Z"/><rect class="cls-6" x="124.51" y="68.77" width="174.62" height="200"/><rect class="cls-7" x="124.51" y="68.77" width="174.62" height="200"/><line class="cls-8" x1="140.98" y1="190.35" x2="281.7" y2="190.35"/><line class="cls-8" x1="140.98" y1="211" x2="281.7" y2="211"/><line class="cls-8" x1="140.98" y1="231.67" x2="281.7" y2="231.67"/><line class="cls-8" x1="140.98" y1="252.34" x2="281.7" y2="252.34"/><line class="cls-8" x1="140.98" y1="169.69" x2="281.7" y2="169.69"/><line class="cls-8" x1="140.98" y1="149.45" x2="281.7" y2="149.45"/><line class="cls-8" x1="140.98" y1="129.2" x2="281.7" y2="129.2"/><text class="cls-9" transform="translate(150.14 105.33)"><tspan class="cls-10">C</tspan><tspan x="11.68" y="0">ON</tspan><tspan class="cls-11" x="39.82" y="0">T</tspan><tspan class="cls-12" x="48.64" y="0">Á</tspan><tspan class="cls-13" x="61.11" y="0">C</tspan><tspan class="cls-11" x="73.81" y="0">T</tspan><tspan class="cls-14" x="82.63" y="0">A</tspan><tspan class="cls-15" x="95.33" y="0">ME</tspan></text><path class="cls-16" d="M117.06,337.15h-10.8V192.86l108.91,64.87a9.16,9.16,0,0,1,.54,15.39L129,333.4A21,21,0,0,1,117.06,337.15Z"/><path class="cls-16" d="M306.58,337.15h10.81V192.86L208.48,257.73a9.16,9.16,0,0,0-.55,15.39l86.7,60.28A20.94,20.94,0,0,0,306.58,337.15Z"/><path class="cls-17" d="M317.39,337.12H106.26v-8.55a11.35,11.35,0,0,1,4.47-9l93.49-71a12.59,12.59,0,0,1,15.21,0l93.48,71a11.36,11.36,0,0,1,4.48,9Z"/><path class="cls-18" d="M291,17.53c-.15,1.64,0,3.51,1.79,3.51,2.38,0,3.54-3.47,3.54-7.84,0-5.78-4.66-10-11.56-10-7.54,0-12.94,6.53-12.94,14.4a11.25,11.25,0,0,0,11.41,11.3,15.84,15.84,0,0,0,6-1.19,4.43,4.43,0,0,1,1.38-.38,1.69,1.69,0,0,1,1.53,1.76,1.54,1.54,0,0,1-.89,1.38,17.52,17.52,0,0,1-8,1.79c-8,0-14.92-5.93-14.92-14.59C268.42,8.21,274.88,0,285.17,0c8.65,0,14.59,6.23,14.59,13.09,0,7.16-2.62,11.08-7.35,11.08a3.94,3.94,0,0,1-4.1-3.32,6,6,0,0,1-5.08,2.95,6.46,6.46,0,0,1-6.71-6.49c0-4.33,2.72-8.28,7.53-8.28a5.25,5.25,0,0,1,4.26,2.27c.07-.37.18-.82.26-1.12a1.58,1.58,0,0,1,1.53-1,1.54,1.54,0,0,1,1.64,1.93l-.34,2.39Zm-11-.63a3.58,3.58,0,0,0,3.62,3.73c2.68,0,4.1-2.2,4.1-5a3.57,3.57,0,0,0-3.62-3.59C281.55,12.08,280.06,14.36,280.06,16.9Z"/><path class="cls-16" d="M396.66,210.09a11.11,11.11,0,0,1,6.92-2.45c4.74,0,8.79,3.19,8.79,7.85,0,3.73-3.15,5.61-5.56,7-1.27.74-1.92,1.6-1.92,2.54,0,.65.16.45.16,1.14a1.81,1.81,0,0,1-2,1.8c-1.64,0-2.58-1.35-2.58-3.27,0-2.17,1.27-3.52,3.23-4.66s4.25-2.38,4.25-4.5c0-2.3-2-3.85-4.41-3.85a7.08,7.08,0,0,0-4,1.47,3.62,3.62,0,0,1-2.09.94,2.26,2.26,0,0,1-2-2.08A2.38,2.38,0,0,1,396.66,210.09Zm6.39,20.75a2.62,2.62,0,1,1-.09,5.23,2.54,2.54,0,0,1-2.82-2.57A2.72,2.72,0,0,1,403.05,230.84Z"/><path class="cls-16" d="M338.86,50a2.76,2.76,0,0,1,2.74-2.82,2.5,2.5,0,0,1,2.7,2.57,2.6,2.6,0,0,1-2.82,2.75A2.49,2.49,0,0,1,338.86,50Zm.29-23.61c-.08-1.39.82-2.21,2.37-2.21,1.84,0,2.38.9,2.34,3.07,0,4.13-.25,9.86-.46,14.44a1.71,1.71,0,0,1-1.84,1.76c-1.06,0-1.67-.53-1.76-2l-.28-5.73Z"/><path class="cls-16" d="M4.89,200.07a2.76,2.76,0,0,1,2.74-2.82,2.5,2.5,0,0,1,2.7,2.57,2.6,2.6,0,0,1-2.82,2.75A2.49,2.49,0,0,1,4.89,200.07Zm.29-23.61c-.09-1.39.81-2.21,2.37-2.21,1.84,0,2.37.9,2.33,3.07,0,4.13-.24,9.86-.45,14.45a1.71,1.71,0,0,1-1.84,1.75c-1.06,0-1.68-.53-1.76-2l-.29-5.73Z"/><path class="cls-16" d="M30.87,309.56c0-1.18.82-1.67,2.21-1.67h5.28V301.5a1.78,1.78,0,0,1,1.92-1.84c1.23,0,1.84.62,1.84,2.09V308c1.76,0,4.46,0,5.57,0a1.68,1.68,0,0,1,1.84,1.84c0,1.19-.58,1.84-2,1.88-.86,0-3.8,0-5.44,0,0,2.05,0,5.4,0,6.34,0,1.35-.94,1.72-2,1.68s-1.72-.86-1.72-2v-6.06c-1.92,0-4.87,0-5.69,0C31.32,311.69,30.79,310.71,30.87,309.56Z"/><path class="cls-16" d="M59.44,70.71c0-1.19.82-1.68,2.21-1.68h5.28V62.65a1.78,1.78,0,0,1,1.92-1.85c1.23,0,1.84.62,1.84,2.09v6.22c1.76,0,4.46,0,5.57,0a1.68,1.68,0,0,1,1.84,1.84c0,1.19-.57,1.84-2,1.88-.86,0-3.8,0-5.44,0,0,2,0,5.4,0,6.34,0,1.35-.94,1.72-2,1.68s-1.72-.86-1.72-2V72.79c-1.92,0-4.87,0-5.69,0A1.75,1.75,0,0,1,59.44,70.71Z"/><path class="cls-16" d="M191.26,28.81c0-1.19.82-1.68,2.21-1.68h5.27V20.75a1.79,1.79,0,0,1,1.93-1.85c1.23,0,1.84.62,1.84,2.09v6.22c1.76,0,4.46,0,5.56,0A1.68,1.68,0,0,1,209.91,29c0,1.19-.57,1.84-2,1.88-.86,0-3.81,0-5.44,0,0,2,0,5.4,0,6.34,0,1.36-.94,1.72-2,1.68s-1.72-.86-1.72-2V30.89c-1.92,0-4.86,0-5.68,0A1.75,1.75,0,0,1,191.26,28.81Z"/><path class="cls-18" d="M132.6,4.34A7.38,7.38,0,0,1,139.43,15c-1.35,2.72-13.66,13.67-13.66,13.67s-12.29-11-13.66-13.67a7.37,7.37,0,0,1,6.83-10.62c2,0,5.47,3.24,6.83,4.55,1.37-1.31,4.79-4.55,6.83-4.55m0-2.6c-1.83,0-3.94,1.1-6.83,3.62-2.89-2.52-5-3.62-6.83-3.62a10,10,0,0,0-9.15,14.39c1.47,2.93,11.28,11.79,14.25,14.44a2.6,2.6,0,0,0,3.46,0c3-2.65,12.8-11.51,14.26-14.45A10,10,0,0,0,132.6,1.74Z"/><rect class="cls-19" x="378.28" y="284.53" width="31.44" height="23.85" rx="1.3"/><path class="cls-18" d="M408.43,285.83v21.25H379.58V285.83h28.85m0-2.6H379.58a2.6,2.6,0,0,0-2.6,2.6v21.25a2.6,2.6,0,0,0,2.6,2.6h28.85a2.59,2.59,0,0,0,2.59-2.6V285.83a2.59,2.59,0,0,0-2.59-2.6Z"/><polyline class="cls-20" points="409.19 288.87 393.95 300.25 378.82 288.87"/><line class="cls-20" x1="401.59" y1="300.25" x2="408.43" y2="307.08"/><line class="cls-20" x1="386.41" y1="300.25" x2="379.58" y2="307.08"/><path class="cls-18" d="M365.7,86a4.56,4.56,0,0,1,4.56,4.56v12.14a4.56,4.56,0,0,1-4.56,4.56H351.85l-5.12,4.55v-4.55H346a4.56,4.56,0,0,1-4.56-4.56V90.55A4.56,4.56,0,0,1,346,86H365.7m0-2.6H346a7.17,7.17,0,0,0-7.16,7.16v12.14a7.16,7.16,0,0,0,5.32,6.91v2.2a2.6,2.6,0,0,0,1.53,2.37,2.67,2.67,0,0,0,1.07.23,2.59,2.59,0,0,0,1.72-.66l4.39-3.9H365.7a7.16,7.16,0,0,0,7.16-7.15V90.55a7.17,7.17,0,0,0-7.16-7.16Z"/><path class="cls-18" d="M357,96.62a1.14,1.14,0,1,1-1.13-1.14A1.14,1.14,0,0,1,357,96.62Z"/><path class="cls-18" d="M364.56,96.62a1.14,1.14,0,1,1-1.13-1.14A1.13,1.13,0,0,1,364.56,96.62Z"/><path class="cls-18" d="M349.48,96.62a1.14,1.14,0,1,1-1.14-1.14A1.14,1.14,0,0,1,349.48,96.62Z"/><path class="cls-18" d="M56.32,125.12A5.84,5.84,0,0,1,62.16,131V146.6a5.84,5.84,0,0,1-5.84,5.84H40.68a5.84,5.84,0,0,1-5.85-5.84V131a5.84,5.84,0,0,1,5.85-5.84H56.32m0-2.6H40.68A8.44,8.44,0,0,0,32.24,131V146.6A8.45,8.45,0,0,0,40.68,155H56.32a8.45,8.45,0,0,0,8.44-8.44V131a8.45,8.45,0,0,0-8.44-8.44Z"/><path class="cls-18" d="M48.5,132a6.83,6.83,0,1,1-6.83,6.83A6.83,6.83,0,0,1,48.5,132m0-2.6a9.43,9.43,0,1,0,9.43,9.43,9.44,9.44,0,0,0-9.43-9.43Z"/><path class="cls-18" d="M58.74,129.29a1.52,1.52,0,1,1-1.51-1.52A1.51,1.51,0,0,1,58.74,129.29Z"/><path class="cls-18" d="M6.39,240.86v16.7H2.6v-16.7H6.39m0-2.59H2.6A2.59,2.59,0,0,0,0,240.86v16.7a2.59,2.59,0,0,0,2.6,2.6H6.39a2.59,2.59,0,0,0,2.6-2.6v-16.7a2.59,2.59,0,0,0-2.6-2.59Z"/><path class="cls-18" d="M18.54,231.76c1.52,0,1.52,2.27,1.52,2.27v7.59h7.59a1.52,1.52,0,0,1,1.52,1.52v.76H28a1.14,1.14,0,0,0,0,2.28h1.14v2.27H28a1.14,1.14,0,0,0,0,2.28h1.14V253H28a1.14,1.14,0,0,0,0,2.28h1.14v.76a1.52,1.52,0,0,1-1.52,1.51H13.23l-4.56-3V242.34l4.56-1.48L17,237.07v-3s0-2.27,1.52-2.27m0-2.6c-2.7,0-4.12,2.45-4.12,4.87v2l-2.59,2.59-4,1.29a2.59,2.59,0,0,0-1.8,2.47v12.19a2.6,2.6,0,0,0,1.16,2.16l4.55,3a2.65,2.65,0,0,0,1.45.43H27.65a4.11,4.11,0,0,0,4.11-4.11v-.76a2.55,2.55,0,0,0-.26-1.14,2.58,2.58,0,0,0,.26-1.14v-2.28a2.58,2.58,0,0,0-.26-1.14,2.55,2.55,0,0,0,.26-1.14v-2.27a2.63,2.63,0,0,1,0-2.28v-.76A4.12,4.12,0,0,0,27.65,239h-5v-5c0-2.42-1.42-4.87-4.12-4.87Z"/><circle class="cls-18" cx="387.83" cy="151.64" r="1.54"/><path class="cls-18" d="M401.72,151.64a1.55,1.55,0,1,1-1.54-1.55A1.54,1.54,0,0,1,401.72,151.64Z"/><path class="cls-18" d="M394,141.61a14.66,14.66,0,1,1-14.66,14.66A14.66,14.66,0,0,1,394,141.61m0-2.6a17.26,17.26,0,1,0,17.26,17.26A17.28,17.28,0,0,0,394,139Z"/><path class="cls-20" d="M402.49,160.13a10.1,10.1,0,0,1-17,0"/><path class="cls-21" d="M302.65,142.69a8.32,8.32,0,0,1-3.77,6.53c-2.08,1.2-3.77.23-3.77-2.18a8.34,8.34,0,0,1,3.77-6.53C301,139.31,302.65,140.28,302.65,142.69Z"/><path class="cls-22" d="M305.4,163.85a9.45,9.45,0,0,1-3.74,2.35l-4.68,2a64.62,64.62,0,0,0,11.47,21.95A58.43,58.43,0,0,0,319,177.84c2.83-4.64,5.19-9,5.13-14.4-1.23.65-3.33-.91-4.26-1.95a7.46,7.46,0,0,1-1.54-3.83c-.67-4.09-.18-8.28.32-12.4a15.58,15.58,0,0,1-7.68,5.21c-2.33.7-6.62,1.64-5.5,5C306.43,158.23,307.54,161.26,305.4,163.85Z"/><path class="cls-23" d="M298.34,135.6a16,16,0,0,0-1,12.12,34.38,34.38,0,0,0,5.92,10.91c1.18,1.57,2.65,3.23,4.61,3.35,1.76.11,3.33-1.08,4.56-2.35,7.54-7.77,8.11-19.61,3.79-25.55C311.69,127.82,302,129.09,298.34,135.6Z"/><path class="cls-24" d="M295.58,136.55a8.14,8.14,0,0,1,7.49-2.86,10.9,10.9,0,0,1,7,4.28,16.78,16.78,0,0,1,3.07,7.72c.19,1.22-14,.5-15.28.28-2.32-.41-4.34-.21-4.19-2.88A11.5,11.5,0,0,1,295.58,136.55Z"/><path class="cls-24" d="M298.21,131a14.89,14.89,0,0,1,6.85-4.94c5.36-2,12-.82,15.58,3.63,2.19,2.74,3,6.35,3.16,9.85a33,33,0,0,1-2.41,14.09c-.35.87-1,1.89-1.95,1.72-.71-.13-1.09-.9-1.33-1.59a24.83,24.83,0,0,1-1.19-4.88c-.22-1.49-.37-3.15-1.49-4.17-.87-.8-2.13-1-3.17-1.56-1.68-.93-2.63-2.77-4-4.11a8.3,8.3,0,0,0-6-2.29,9,9,0,0,0-3.66,1c-.83.41-1.75,1.21-2.51.16C294.91,136.23,297.25,132.25,298.21,131Z"/><path class="cls-24" d="M309.41,121.89a4.47,4.47,0,0,1,3.64-2.52,8.36,8.36,0,0,1,9,5.46,4.42,4.42,0,0,1-.56,4.32c-1.05,1.14-2.81,1.27-4.33,1C313.85,129.56,307.82,126.2,309.41,121.89Z"/><path class="cls-23" d="M315,148.82c-.53-3.25,2-6.34,3.46-5.52.66.36.73,1.27.67,2a19.35,19.35,0,0,1-2.46,8c-.53-1.31-1.07-2.63-1.61-3.94"/><path class="cls-23" d="M331,171.13a15.36,15.36,0,0,0,0,4C332.06,188,333.8,200.9,338.3,213a11.25,11.25,0,0,0,2,3.66,3.69,3.69,0,0,0,6.58-1.28,11.55,11.55,0,0,0,.48-4.1,124.85,124.85,0,0,0-5-35.18c-.8-2.67-1.81-5.46-4-7.21-1.21-1-3.2-1.84-4.79-1.4S331.28,169.68,331,171.13Z"/><path class="cls-23" d="M290.4,179.54a11.7,11.7,0,0,0-1,2.91c-2.32,9.76-4.14,19.73-3.71,29.75a8.51,8.51,0,0,0,.56,3.17,2.86,2.86,0,0,0,5.17.63,9.09,9.09,0,0,0,1.34-2.91,97.08,97.08,0,0,0,4.74-27.18c0-2.16,0-4.46-1.21-6.27a4.61,4.61,0,0,0-3.2-2.18C291.91,177.4,290.94,178.53,290.4,179.54Z"/><path class="cls-18" d="M332,191.4c5.08.46,10.15-.54,15.15-1.53-.06-2.18-.22-4.37-.45-6.55a21.18,21.18,0,0,0-.45-3.53c-.07-.44-.13-.88-.21-1.33l-.1,0a22.45,22.45,0,0,0-4.66-8.78c-5.85-4.33-12.83-6.47-20.07-7.28-3.05,7.53-7.63,13.73-12.16,20.49.24-.36-3.05-6.09-3.36-6.83-1-2.4-1.63-4.94-2.6-7.34a9.22,9.22,0,0,1-.6-3S295.1,168.39,293,170a16.6,16.6,0,0,0-5.59,8.75c0,.13-.06.27-.1.4s-1.78,7.33-1.78,11a2.67,2.67,0,0,0,.54,2l.07.07a4,4,0,0,0,2.9.93,54.52,54.52,0,0,1,5.46.27l.06-.43a1.8,1.8,0,0,0,.2-.18c.4,1,.77,2.07,1.11,3.11a5.11,5.11,0,0,0,.67,1.29,45.93,45.93,0,0,1,.37,26.33c11.93,1.2,35.88-.76,35.88-.76l1.68-.78a9.68,9.68,0,0,0-1.65-3.08c-1.8-1.72-2.1-4.46-2.22-7a134.91,134.91,0,0,1,1-23.43A28,28,0,0,0,332,191.4Z"/><path class="cls-25" d="M292.64,179.69c-.64,3.68-1.25,7.37-1.53,11.09a3,3,0,0,0,.2,1.66c.44.82,3.65.94,3.65.94s-.79-2.83-1-3.84A61.67,61.67,0,0,1,292.64,179.69Z"/><path class="cls-25" d="M303.24,195.11a143.4,143.4,0,0,0,20.16-1.4,12.94,12.94,0,0,1-7.66,3.62c-2.61.28-5.26-.25-7.87.09-2.15.28-4.23,1.14-6.4,1.07a7.61,7.61,0,0,1-5.22-2.37c-.91-1-2.38-3.22-1.86-4.62C296.52,194.42,299.12,195,303.24,195.11Z"/><path class="cls-25" d="M332,191l-2.34-15.75a80.72,80.72,0,0,1-.43,19.46c-.64,4.47-1.66,8.9-1.77,13.42s.78,9.23,3.58,12.78a4.35,4.35,0,0,0,1.5,1.33,1.85,1.85,0,0,0,1.91-.15c-2.47-2.12-2.89-5.73-3-9-.35-8,0-15.91.27-23.87"/><path class="cls-26" d="M330.77,211.14c5,10.83,9.65,22.1,10.87,34,1.29,12.73-1.37,25.5-4,38-.57,2.69-1.1,3.88-4.21,5a25.36,25.36,0,0,1-10.55,1.27c-1.46-8.41-5.5-16.11-8.64-24.05a118.22,118.22,0,0,1-7.85-52.83c0,.13-6.93.09-7.56.13,5.13.4,10.67-.47,15.82-.72Z"/><path class="cls-26" d="M301.9,290.11a91.49,91.49,0,0,0,15.26.2c2.31-5.79,2.6-12.22,1.92-18.41s-2.32-12.24-3.75-18.3A297,297,0,0,1,308.67,213c0-.08-8.9-.74-9.6-.34-.92.52-1.18,2.28-1.47,3.19a81.53,81.53,0,0,0-3.68,24.39C293.77,257.12,297.83,273.64,301.9,290.11Z"/><path class="cls-25" d="M347.62,360.43a8.08,8.08,0,0,0-2-3.59,34.18,34.18,0,0,1-6.88-17.55c-1.94.66-3.55.06-5.43.16a32.46,32.46,0,0,1-.61,6.94c-.59,2.93-1.16,5.48-.4,8.35a12.88,12.88,0,0,1,.94,1.16,18.66,18.66,0,0,1,4.89,7.52,9.35,9.35,0,0,0,1.36.89,6.44,6.44,0,0,0,5.36.48A4.32,4.32,0,0,0,347.62,360.43Z"/><path class="cls-25" d="M307.22,351.43c-1.92,2.48-4.58,4.43-6,7.23-.56,1.12-.76,2.76.33,3.38a2.83,2.83,0,0,0,2.26-.07,62.57,62.57,0,0,0,12.72-5.84,4.28,4.28,0,0,0,2.28-2.49,4.42,4.42,0,0,0-.13-1.73l-2.52-11.78c-.13-.65-4-.2-4.45-.08-1.64.44-1.06,1.57-1.21,3.06A16.56,16.56,0,0,1,307.22,351.43Z"/><path class="cls-26" d="M324.27,296.29q1,4.95,2,9.9c3.45,17.31,5.59,26.8,5.88,36.94.43.07.86.13,1.28.21a39.79,39.79,0,0,1,4.76.05l2.8-.14c-2-15.25,3.07-30.15.63-45a91,91,0,0,0-4.13-14.7,9.52,9.52,0,0,0-2.16-4,6.15,6.15,0,0,0-4-1.48c-4.26-.14-9.41,4.11-9,8.64C322.69,289.86,323.64,293.12,324.27,296.29Z"/><path class="cls-26" d="M309.5,343.25l7.93.3c.53-12.14,4.5-24.2,2.88-36.24-.62-4.54-2-8.93-2.86-13.42s-1.12-9.26.46-13.56c-.28.77-7,.61-7.86.62-1.36,0-2.72,0-4.08-.13-.91-.07-2.8-.66-3.62-.26-1.51.73-.73,5.2-.64,6.59a78.48,78.48,0,0,0,1,8.08C303.93,302.58,307.78,318.56,309.5,343.25Z"/><path class="cls-23" d="M274.63,212.62c-5.23,2.39-10.28,5.68-16,6.07-3,.2-6.08-.41-9,.34l5.79,1.86a15.68,15.68,0,0,1-8.94,3.52c-1,.06-2.16.16-2.54,1.05A10.72,10.72,0,0,0,253,228c2.53-.51,4.75-2,7.06-3.12,7.94-3.92,17.13-4.19,25.71-6.39a13.35,13.35,0,0,0,4.41-1.77,5.37,5.37,0,0,0,2.45-3.9c.41-6.41-10.2-3.08-13.33-2A43.91,43.91,0,0,0,274.63,212.62Z"/><path class="cls-27" d="M310.13,231.47c0,3.44,1,7,1.64,10.33.58,3,.84,6,1.41,9,1.5,7.95,5,15.62,6.15,23.64.47,3.26.58,5.91-.59,8.87,0-3.24-1.54-7.06-2.63-10.12-1.19-3.3-2.6-6.44-3.6-9.82A74.69,74.69,0,0,1,309,242.25C309,238.65,310.21,235,310.13,231.47Z"/><path class="cls-27" d="M316.15,291c-3.29,2.55.2,9,1.09,12a62.62,62.62,0,0,1,2.09,12.47c.18,2.08.59,4.56.16,6.56,0-1.75.76-3.64,1-5.37a22.38,22.38,0,0,0,.15-5.89,92,92,0,0,0-3-13.66C317.05,294.86,316.82,292.58,316.15,291Z"/><path class="cls-27" d="M337.38,283.29c-4.54,2.15,1.25,12,2.05,15.17a54.84,54.84,0,0,1,1.46,14.93c-.1,2.64,0,5.24,0,7.93a67.76,67.76,0,0,0-.85-31.41C339.47,287.82,338.79,285,337.38,283.29Z"/><polygon class="cls-28" points="245.73 224.64 275.56 207.16 314.69 224.18 318.26 224 318.35 225.79 318.32 225.79 288.69 243.96 245.73 224.64"/><polygon class="cls-21" points="288.61 242.26 318.27 224.07 275.48 205.46 245.64 222.95 288.61 242.26"/><polygon class="cls-28" points="227.96 195.27 229.25 194.2 272.05 213.55 290.14 243.07 288.69 243.96 285.09 241.6 286.09 241.13 247.02 223.57 231.4 197.75 230.85 198.38 227.96 195.27"/><polygon class="cls-21" points="288.69 243.96 270.76 214.62 227.96 195.27 245.73 224.64 288.69 243.96"/><path class="cls-28" d="M278.65,219.24l8.86,4.53a3.63,3.63,0,0,0,3.28,0l5.92-3.83c.82-.52.67-1.36-.33-1.87l-8.86-4.54a3.63,3.63,0,0,0-3.28,0l-5.92,3.83C277.5,217.88,277.65,218.73,278.65,219.24Z"/><path class="cls-23" d="M324.54,214.19c-6.55,3-12.89,7.11-20.07,7.6-3.77.25-7.63-.51-11.28.43l7.27,2.34A19.71,19.71,0,0,1,289.24,229c-1.21.07-2.7.2-3.18,1.31a13.39,13.39,0,0,0,11.38,3.19c3.18-.64,6-2.47,8.86-3.91,10-4.92,21.48-5.26,32.23-8a16.69,16.69,0,0,0,5.53-2.22,6.76,6.76,0,0,0,3.08-4.9c.51-8-12.8-3.86-16.72-2.57A57,57,0,0,0,324.54,214.19Z"/><path class="cls-29" d="M296.42,134.12c.4-1.78,5.54-4.24,10.68-2.86s10.29,7.84,10.29,14v1.44"/><path class="cls-21" d="M321.21,142.94l-1.45-.83-.08,0-.08,0h0a2.71,2.71,0,0,0-2.54.32,8.3,8.3,0,0,0-3.77,6.53,2.74,2.74,0,0,0,.92,2.29v0l.11.07.17.1,1.51.88.52-.93a3.77,3.77,0,0,0,.55-.25,8.34,8.34,0,0,0,3.77-6.54,4.71,4.71,0,0,0-.07-.78Z"/><path class="cls-30" d="M322.31,145.38a8.33,8.33,0,0,1-3.78,6.53c-2.08,1.2-3.77.23-3.77-2.18a8.34,8.34,0,0,1,3.77-6.53C320.62,142,322.31,143,322.31,145.38Z"/><path class="cls-29" d="M318.69,148.24c-1.12,4-6.07,8.2-9.54,8.79"/><path class="cls-21" d="M310.78,157a1.63,1.63,0,1,1-1.63-1.62A1.63,1.63,0,0,1,310.78,157Z"/><path class="cls-21" d="M120.62,144.7a8.34,8.34,0,0,0,3.77,6.53c2.09,1.2,3.78.23,3.78-2.18a8.33,8.33,0,0,0-3.78-6.53C122.31,141.31,120.62,142.29,120.62,144.7Z"/><path class="cls-22" d="M117.65,166.93a9.54,9.54,0,0,0,3.79,2.39l4.74,2a65.82,65.82,0,0,1-11.62,22.23,59.07,59.07,0,0,1-10.72-12.48c-2.87-4.7-5.26-9.08-5.2-14.58,1.25.65,3.38-.92,4.32-2a7.44,7.44,0,0,0,1.55-3.87c.68-4.15.18-8.39-.32-12.56a15.83,15.83,0,0,0,7.78,5.27c2.36.71,6.7,1.67,5.57,5.07C116.61,161.24,115.49,164.31,117.65,166.93Z"/><path class="cls-23" d="M124.8,138.32c2.07,3.67,2.16,8.22,1,12.28a34.74,34.74,0,0,1-6,11.05c-1.19,1.59-2.68,3.27-4.67,3.39-1.78.11-3.37-1.09-4.61-2.38-7.64-7.87-8.22-19.86-3.85-25.88C111.28,130.44,121.08,131.73,124.8,138.32Z"/><path class="cls-27" d="M127.59,139.28a8.23,8.23,0,0,0-7.58-2.89,11.07,11.07,0,0,0-7.07,4.34,17,17,0,0,0-3.11,7.82c-.19,1.23,14.22.49,15.48.27,2.35-.41,4.39-.21,4.24-2.91A11.59,11.59,0,0,0,127.59,139.28Z"/><path class="cls-27" d="M124.93,133.61a15,15,0,0,0-6.94-5c-5.42-2-12.18-.83-15.78,3.68-2.21,2.78-3,6.43-3.19,10a33.64,33.64,0,0,0,2.43,14.27c.36.89,1,1.91,2,1.75.73-.13,1.11-.92,1.35-1.61a26.39,26.39,0,0,0,1.21-4.94c.21-1.52.37-3.2,1.5-4.23.89-.81,2.16-1,3.21-1.58,1.71-.94,2.67-2.81,4.08-4.16a8.42,8.42,0,0,1,6.06-2.32,9.06,9.06,0,0,1,3.7,1c.83.41,1.78,1.23,2.54.17C128.28,139,125.91,134.93,124.93,133.61Z"/><path class="cls-23" d="M107.91,151.71c.54-3.28-2-6.41-3.51-5.59-.66.36-.73,1.28-.67,2a19.66,19.66,0,0,0,2.48,8.11l1.64-4"/><path class="cls-23" d="M91.69,174.3a15.83,15.83,0,0,1,0,4c-1,13-2.82,26.14-7.38,38.4a11.35,11.35,0,0,1-2,3.71,3.74,3.74,0,0,1-6.67-1.3A11.82,11.82,0,0,1,75.2,215a126.53,126.53,0,0,1,5.07-35.63c.81-2.7,1.83-5.52,4-7.3,1.22-1,3.25-1.86,4.85-1.41S91.44,172.84,91.69,174.3Z"/><path class="cls-23" d="M132.84,182.82a12.18,12.18,0,0,1,1,3c2.34,9.88,4.19,20,3.76,30.13a8.74,8.74,0,0,1-.58,3.21,2.9,2.9,0,0,1-5.23.64,9.13,9.13,0,0,1-1.36-2.95,98.48,98.48,0,0,1-4.8-27.52c0-2.19,0-4.52,1.23-6.36a4.7,4.7,0,0,1,3.24-2.21C131.31,180.66,132.3,181.8,132.84,182.82Z"/><path class="cls-25" d="M90.76,194.83c-5.14.47-10.28-.54-15.34-1.54q.1-3.33.45-6.63a22.62,22.62,0,0,1,.46-3.58l.21-1.35.11,0a22.75,22.75,0,0,1,4.72-8.89c5.92-4.39,13-6.55,20.32-7.37,3.09,7.63,7.73,13.9,12.31,20.74-.24-.36,3.09-6.16,3.41-6.91,1-2.43,1.65-5,2.63-7.44a9.24,9.24,0,0,0,.61-3s7.44,2.64,9.6,4.27a16.72,16.72,0,0,1,5.66,8.85c0,.14.07.27.1.41s1.8,7.42,1.8,11.09a2.71,2.71,0,0,1-.54,2l-.08.07a4,4,0,0,1-2.93.94,51.37,51.37,0,0,0-5.52.27l-.07-.44a.86.86,0,0,1-.2-.18c-.41,1-.78,2.1-1.12,3.15a5,5,0,0,1-.69,1.31,46.45,46.45,0,0,0-.36,26.66c-12.09,1.22-36.35-.77-36.35-.77l-1.7-.79a9.81,9.81,0,0,1,1.67-3.11c1.83-1.75,2.13-4.52,2.25-7a136.38,136.38,0,0,0-1-23.73A26.84,26.84,0,0,1,90.76,194.83Z"/><path class="cls-31" d="M130.57,183c.65,3.72,1.27,7.46,1.56,11.23a3,3,0,0,1-.21,1.68c-.45.83-3.7,1-3.7,1s.81-2.86,1-3.89A62,62,0,0,0,130.57,183Z"/><path class="cls-31" d="M119.84,198.59a142.5,142.5,0,0,1-20.41-1.42,13.08,13.08,0,0,0,7.75,3.67c2.64.28,5.33-.25,8,.09,2.17.28,4.28,1.16,6.48,1.08a7.66,7.66,0,0,0,5.29-2.4c.92-1,2.41-3.26,1.88-4.67C126.65,197.89,124,198.48,119.84,198.59Z"/><path class="cls-31" d="M90.74,194.38q1.17-8,2.36-15.95a81.77,81.77,0,0,0,.44,19.71c.65,4.52,1.68,9,1.79,13.58s-.79,9.36-3.62,12.95A4.24,4.24,0,0,1,90.19,226a1.88,1.88,0,0,1-1.94-.14c2.5-2.15,2.93-5.81,3.08-9.11.36-8,0-16.12-.27-24.17"/><path class="cls-18" d="M91.59,211.44c-5.11,11-9.78,22.38-11,34.42-1.31,12.9,1.38,25.83,4.06,38.51.57,2.72,1.12,3.92,4.26,5a25.7,25.7,0,0,0,10.69,1.29c1.48-8.52,5.57-16.32,8.75-24.36a119.62,119.62,0,0,0,8-53.5c0,.12,7,.08,7.65.12-5.19.41-10.81-.47-16-.72Z"/><path class="cls-32" d="M105.13,285.27l0-.09c0-1.26,0-2.52,0-3.77a2.33,2.33,0,0,0-2-2.31c-.07-8.4,2.18-16.44,4.13-24.66A301.28,301.28,0,0,0,114,213.3c0-.08,9-.75,9.72-.35.94.53,1.19,2.31,1.49,3.24a82.59,82.59,0,0,1,3.73,24.7c.12,13.26-2.33,26.3-5.36,39.29a53.43,53.43,0,0,0-2.79,11.24,92.51,92.51,0,0,1-15,.22A18.43,18.43,0,0,0,105.13,285.27Z"/><path class="cls-26" d="M74.52,362.63a8.17,8.17,0,0,1,2-3.64,34.6,34.6,0,0,0,7-17.77c2,.67,3.6.06,5.51.17a31.94,31.94,0,0,0,.61,7c.6,3,1.18,5.55.41,8.46a12,12,0,0,0-1,1.18,18.68,18.68,0,0,0-5,7.61,9.14,9.14,0,0,1-1.38.91,6.58,6.58,0,0,1-5.42.48A4.37,4.37,0,0,1,74.52,362.63Z"/><path class="cls-26" d="M115.44,353.51c1.94,2.52,4.63,4.49,6,7.33.57,1.14.77,2.79-.33,3.43a2.86,2.86,0,0,1-2.29-.08A62.84,62.84,0,0,1,106,358.27a4.27,4.27,0,0,1-2.31-2.51,4.38,4.38,0,0,1,.13-1.76l2.55-11.93c.14-.65,4-.2,4.51-.07,1.66.44,1.07,1.58,1.23,3.09A16.61,16.61,0,0,0,115.44,353.51Z"/><path class="cls-23" d="M103.88,331.47c-.16-.67,1.83,12.64,1.77,11.77a3.41,3.41,0,0,0,.56,2c.54.49,1.86.18,2.5.15s2.84.25,3.28-.18.26-2.54.33-3.16c.64-5.35,2-10.63,2.71-16,2.38-19.17,5.39-27.9,6-37.68.08-1.4.87-5.93-.65-6.67-.83-.4-2.75.2-3.67.26-1.37.1-2.75.14-4.13.14-.9,0-7.68.15-8-.62,1.6,4.35,1.32,9.17.46,13.72s-2.27,9-2.89,13.59C101.16,316.45,102.62,324,103.88,331.47ZM105.63,343c0-.32,0-.65-.07-1C105.59,342.33,105.6,342.67,105.63,343Z"/><path class="cls-23" d="M82.73,342.59c.06-1.83-.06-6.08-.08-6.45-.15-3.19-.44-6.37-.82-9.54q-.08-.84-.21-1.68c-.1-.76-.2-1.52-.31-2.29A93.74,93.74,0,0,0,80,312.18c-.45-11.33,1.18-16.9,4.8-27.45A9.65,9.65,0,0,1,87,280.66a6.22,6.22,0,0,1,4-1.5c4.31-.14,9.52,4.17,9.07,8.75-.32,3.26-1.28,6.56-1.92,9.76-4.77,23.91-4.92,24.65-5.48,27.59-.24.89-1.35,4.79-1.46,5.46-.62,2.54-1.4,7.78-1.41,7.82-.46,2.15-.79,6.77-.9,6.78a42.86,42.86,0,0,0-4.81.05l-1.34-.06C82.79,344.41,82.79,343.48,82.73,342.59Z"/><path class="cls-18" d="M124.52,212.62c7.65,23,3.36,48-.3,69.78a7.68,7.68,0,0,1-1.53,4.09c-1.17,1.27-3,1.6-4.71,1.82a107.22,107.22,0,0,1-34.56-1.15,173.27,173.27,0,0,1-3.62-36.05c0-6.23.42-12.61,2.83-18.36,1.57-3.75,3.94-7.1,5.9-10.66a27.55,27.55,0,0,0,3-7.51c.18-.89,0-2.77.83-3.26s2.8.29,3.66.42A127.06,127.06,0,0,0,124.52,212.62Z"/><path class="cls-23" d="M105.66,339.67c1.36,3.17-1.4,4.11,2.12,10.3,1.38,2.44,2.08,5.17,5,5.92.84.22,3.11,1.09,3.72.12s-1.71-3-2.15-3.85c-4.27-8.61.22-11.18-4.19-12.71C108.35,338.82,107.53,339.23,105.66,339.67Z"/><path class="cls-23" d="M89,342.8c.38,1.61-.17,3.75-.11,5.08a9.36,9.36,0,0,1-1,4.35c-.85,1.94-3.12,7-5.62,6.52-4-.73-1.31-5.49-.66-7.87a36.2,36.2,0,0,0,1.24-9.2c0-1.13,0-1.69,1.06-2.14a12.81,12.81,0,0,1,3.15-.81C89.71,338.43,88.46,341.19,89,342.8Z"/><path class="cls-27" d="M109.07,126.87a6.74,6.74,0,0,0-3.61-2.36c-4.33-1.32-9.22.24-12.51,3.35a19.75,19.75,0,0,0-5.59,12.06,40.54,40.54,0,0,0,1.06,13.47,79.49,79.49,0,0,1,2,10.2,16.8,16.8,0,0,1-1.88,10.07c2.9-.9,5-3.55,6-6.42a26.8,26.8,0,0,0,1-9A140.62,140.62,0,0,1,95.67,143a19.86,19.86,0,0,1,1.61-6.73,9.07,9.07,0,0,1,4.86-4.73,5.9,5.9,0,0,1,6.38,1.43s1.13-2.33,1.2-2.7A4.21,4.21,0,0,0,109.07,126.87Z"/><path class="cls-21" d="M129,190l20.46-1.61c1.05-.08,1.48.74.95,1.83l-13.93,29.22a3.94,3.94,0,0,1-2.84,2.13l-20.46,1.61c-1,.08-1.47-.74-1-1.83l13.93-29.22A4,4,0,0,1,129,190Z"/><path class="cls-17" d="M148,191.36,135,218.7a2.26,2.26,0,0,1-1.61,1.21l-18.15,1.43c-.59,0-.83-.42-.54-1l13-27.35a2.22,2.22,0,0,1,1.61-1.2l18.15-1.43C148.08,190.27,148.32,190.74,148,191.36Z"/><path class="cls-23" d="M95.29,207.17c7-1.08,14.52-1.12,20.73-4.62,3.25-1.83,6-4.56,9.55-5.77l-4.74,5.88a19.32,19.32,0,0,0,11.67-2.45c1-.59,2.34-1.3,3.35-.64a13.25,13.25,0,0,1-7.68,8.82c-3,1.19-6.27,1.19-9.45,1.58-10.9,1.34-20.61,7.32-31,10.89A17,17,0,0,1,82,222a6.68,6.68,0,0,1-5.21-2.38c-4.79-6.36,8.48-10.15,12.42-11.21A58.48,58.48,0,0,1,95.29,207.17Z"/><path class="cls-23" d="M135.29,207.1c-1,1.19-1.93,4.29-1.08,6.06s2.26,4.62,3.34,4.83,4.32-2.48,4.53-4.31.86-4.32-1.94-5.39S135.89,206.35,135.29,207.1Z"/><path class="cls-29" d="M126.86,136.13c-.41-1.78-5.55-4.24-10.69-2.87s-10.28,7.85-10.28,14v1.44"/><path class="cls-21" d="M102.07,145l1.45-.83.07-.05.08,0h0a2.73,2.73,0,0,1,2.54.31,8.36,8.36,0,0,1,3.77,6.54,2.77,2.77,0,0,1-.92,2.29v0l-.11.06-.18.11-1.5.87-.52-.92a5.25,5.25,0,0,1-.55-.25,8.34,8.34,0,0,1-3.78-6.54,3.81,3.81,0,0,1,.08-.78Z"/><path class="cls-30" d="M101,147.38a8.34,8.34,0,0,0,3.77,6.54c2.09,1.2,3.77.23,3.77-2.18a8.3,8.3,0,0,0-3.77-6.53C102.66,144,101,145,101,147.38Z"/><path class="cls-29" d="M104.59,150.25c1.12,4,6.06,8.2,9.54,8.79"/><path class="cls-21" d="M112.5,159a1.63,1.63,0,1,0,1.63-1.63A1.63,1.63,0,0,0,112.5,159Z"/></g></g></g></svg>